<?xml version="1.0" standalone="no"?>
<!DOCTYPE svg PUBLIC "-//W3C//DTD SVG 20010904//EN"
 "http://www.w3.org/TR/2001/REC-SVG-20010904/DTD/svg10.dtd">
<svg version="1.0" xmlns="http://www.w3.org/2000/svg"
 width="1024.000000pt" height="266.000000pt" viewBox="0 0 1024.000000 266.000000"
 preserveAspectRatio="xMidYMid meet">
<metadata>
Created by potrace 1.16, written by Peter Selinger 2001-2019
</metadata>
<g transform="translate(0.000000,266.000000) scale(0.100000,-0.100000)"
fill="#000000" stroke="none">
<path d="M4550 2193 c-52 -7 -106 -63 -120 -125 -35 -164 24 -349 135 -425 19
-13 58 -26 87 -31 l53 -7 6 -300 c6 -295 10 -340 43 -400 9 -16 16 -36 16 -43
0 -25 92 -111 129 -122 56 -15 345 -13 384 4 43 18 87 71 87 105 0 15 4 31 10
37 6 6 11 148 12 364 3 352 3 355 24 358 20 3 21 -2 26 -86 3 -48 12 -104 20
-123 9 -19 24 -54 34 -79 10 -25 21 -47 24 -50 4 -3 9 -13 13 -23 4 -9 18 -22
31 -27 23 -9 46 -58 46 -100 0 -9 4 -20 9 -25 5 -6 11 -21 13 -35 3 -21 -2
-25 -35 -33 -23 -6 -58 -28 -88 -56 -45 -41 -51 -52 -61 -109 -12 -65 -1 -179
22 -220 5 -9 21 -43 35 -74 16 -35 41 -69 65 -88 l39 -31 168 -6 c92 -3 220
-3 285 2 111 7 117 8 147 37 17 17 31 38 31 47 0 21 50 71 71 71 18 1 49 27
78 68 18 26 24 52 30 124 5 82 8 92 29 99 22 8 22 7 22 -81 0 -49 4 -91 9 -94
4 -3 11 -23 15 -44 8 -51 60 -149 100 -186 29 -28 39 -30 141 -39 151 -14 316
-2 350 25 40 31 56 74 63 167 l7 86 160 5 c94 3 168 10 180 17 34 19 64 57 78
98 13 38 16 40 59 43 44 3 47 1 84 -45 52 -63 83 -90 119 -103 20 -6 343 -9
942 -7 903 2 912 2 939 23 15 11 37 33 48 48 21 27 21 38 20 457 -2 357 -4
433 -16 452 -8 12 -20 38 -27 57 -6 20 -28 53 -49 74 -67 70 -64 70 -487 74
-229 2 -417 0 -474 -7 -92 -10 -96 -12 -137 -52 l-43 -43 -21 27 c-12 15 -26
27 -32 27 -6 0 -16 7 -22 15 -16 23 -151 35 -376 34 -268 0 -316 -6 -368 -47
-22 -18 -51 -52 -64 -75 -22 -39 -26 -42 -67 -42 -42 0 -47 3 -91 60 -26 33
-62 69 -81 80 -36 21 -30 21 -864 19 -82 -1 -190 -1 -240 -1 -136 1 -180 -9
-224 -49 -21 -19 -42 -34 -46 -34 -4 0 -24 13 -44 28 -57 44 -82 51 -208 58
-65 4 -123 11 -129 16 -6 4 -14 26 -18 47 -9 58 -52 142 -92 181 l-36 35 -472
1 c-259 1 -487 0 -506 -3z m860 -138 l0 -75 -145 0 -145 0 -2 -437 -3 -438
-145 -3 -145 -3 0 438 0 438 -147 3 -148 3 0 68 c0 37 3 71 7 74 3 4 201 7
440 7 l433 0 0 -75z m438 -369 l3 -147 147 3 147 3 3 143 3 142 129 2 c72 0
136 1 143 2 9 1 12 -34 12 -144 l0 -145 -70 -5 -70 -5 -5 -145 -5 -145 -67 -3
-68 -3 0 -129 c0 -70 -3 -135 -6 -144 -5 -12 -21 -16 -75 -16 l-68 0 -3 -72
-3 -73 -215 0 -215 0 -3 73 -3 72 146 0 145 0 0 150 0 149 -49 -6 c-27 -3 -61
-3 -75 1 l-26 6 0 145 0 145 -70 0 -70 0 0 145 0 144 133 3 c72 2 137 3 142 2
6 0 11 -59 13 -148z m1470 76 l3 -71 72 -3 72 -3 3 -214 c2 -165 -1 -216 -10
-223 -7 -4 -41 -8 -75 -8 l-63 0 0 -70 0 -70 -220 0 -219 0 -3 -147 -3 -148
-140 0 -140 0 -3 512 -2 513 352 2 c194 2 358 3 363 2 6 0 11 -33 13 -72z
m1030 0 l3 -71 72 -3 72 -3 0 -145 0 -145 -292 -3 -293 -2 0 -69 c0 -56 3 -70
18 -76 9 -3 141 -5 292 -4 l275 2 0 -69 0 -69 -367 -3 -368 -2 0 75 0 74 -62
-5 c-35 -3 -67 -1 -73 3 -6 5 -9 89 -7 226 l3 217 70 0 69 0 0 70 0 70 283 2
c155 2 287 3 292 2 6 0 11 -33 13 -72z m1172 -3 l0 -69 -284 0 c-157 0 -287
-3 -289 -7 -3 -5 -7 -37 -8 -73 l-4 -65 293 -3 292 -2 0 -220 0 -220 -440 0
-441 0 3 68 3 67 290 5 c160 3 291 7 293 8 2 1 2 34 0 72 l-3 71 -290 2 -290
2 0 215 0 215 430 5 c237 3 433 4 438 2 4 -2 7 -34 7 -73z"/>
<path d="M6887 1684 c-4 -4 -7 -103 -7 -220 0 -184 2 -213 16 -218 31 -12 249
-7 267 7 16 11 17 33 15 222 l-3 210 -141 3 c-77 1 -143 -1 -147 -4z"/>
<path d="M7917 1683 c-4 -3 -7 -37 -7 -75 l0 -68 145 0 145 0 0 75 0 75 -138
0 c-76 0 -142 -3 -145 -7z"/>
<path d="M630 1910 c-31 -4 -64 -12 -75 -18 -37 -20 -77 -70 -86 -108 -12 -54
-11 -739 1 -805 11 -61 41 -139 53 -139 4 0 7 -6 7 -13 0 -16 42 -57 58 -57 7
0 12 -4 12 -8 0 -26 96 -31 670 -31 568 0 597 1 636 20 22 10 51 30 64 44 l23
24 40 -34 c22 -19 57 -40 76 -45 20 -6 169 -10 335 -10 286 0 302 1 345 22 25
11 56 30 68 41 21 19 22 19 60 -11 58 -45 92 -52 257 -52 170 0 203 7 258 50
l37 31 53 -38 53 -38 166 -3 c192 -4 231 3 279 53 l35 36 0 367 -1 367 -40 75
c-33 62 -48 79 -92 105 -31 18 -62 47 -80 75 -51 80 -68 89 -173 101 -56 7
-223 9 -409 7 -338 -4 -337 -4 -396 -60 -37 -35 -69 -31 -108 12 -14 17 -41
32 -63 37 -21 4 -171 8 -333 7 -239 0 -301 -3 -327 -15 -33 -15 -93 -82 -93
-104 0 -22 -36 -45 -73 -45 -32 0 -40 6 -79 57 -61 80 -84 94 -169 104 -88 10
-910 9 -989 -1z m958 -148 l3 -71 72 -3 72 -3 3 -293 2 -293 -146 3 -145 3 -2
290 -2 290 -70 0 -70 0 -5 -290 -5 -290 -147 -3 -148 -3 0 296 0 296 -67 -3
-68 -3 -5 -290 -5 -290 -148 -3 -147 -3 2 363 3 363 500 5 c275 3 505 5 510 4
6 0 11 -33 13 -72z m1030 0 l3 -71 72 -3 72 -3 3 -214 c2 -165 -1 -216 -10
-223 -7 -4 -41 -8 -75 -8 l-63 0 0 -70 0 -70 -295 0 -295 0 0 75 0 74 -63 -6
c-47 -4 -65 -2 -72 8 -6 8 -9 100 -7 227 l3 212 69 0 70 0 0 70 0 70 283 2
c155 2 287 3 292 2 6 0 11 -33 13 -72z m1030 0 l3 -71 72 -3 72 -3 0 -290 0
-290 -147 -3 -148 -3 0 296 0 296 -142 -3 -143 -3 -5 -290 -5 -290 -149 -3
-149 -3 7 32 c3 17 6 182 6 365 l0 334 353 2 c193 2 357 3 362 2 6 0 11 -33
13 -72z"/>
<path d="M2187 1683 c-4 -3 -7 -102 -7 -219 0 -184 2 -213 16 -218 20 -8 238
-8 258 0 14 5 16 35 16 225 l0 219 -138 0 c-76 0 -142 -3 -145 -7z"/>
<path d="M4305 1630 c-103 -22 -167 -76 -204 -174 -73 -197 52 -390 254 -390
184 -1 305 112 305 283 0 159 -100 266 -265 284 -27 3 -68 2 -90 -3z m-2 -335
c48 -48 88 -48 133 0 32 35 36 36 96 33 61 -3 63 -4 60 -28 -6 -46 -56 -113
-106 -145 -43 -26 -59 -30 -120 -30 -59 0 -79 5 -117 27 -53 31 -97 90 -106
142 l-6 36 66 0 c61 0 67 -2 100 -35z"/>
</g>
</svg>
