<?xml version="1.0" standalone="no"?>
<!DOCTYPE svg PUBLIC "-//W3C//DTD SVG 20010904//EN"
 "http://www.w3.org/TR/2001/REC-SVG-20010904/DTD/svg10.dtd">
<svg version="1.0" xmlns="http://www.w3.org/2000/svg"
 width="1024.000000pt" height="1024.000000pt" viewBox="0 0 1024.000000 1024.000000"
 preserveAspectRatio="xMidYMid meet">
<metadata>
Created by potrace 1.16, written by Peter Selinger 2001-2019
</metadata>
<g transform="translate(0.000000,1024.000000) scale(0.100000,-0.100000)"
fill="#000000" stroke="none">
<path d="M4850 9774 c-301 -13 -734 -86 -1010 -171 -366 -112 -565 -190 -839
-330 -90 -46 -176 -92 -191 -103 -16 -11 -30 -20 -33 -20 -18 0 -330 -205
-458 -301 -184 -139 -306 -246 -495 -434 -228 -227 -411 -446 -564 -675 -64
-95 -190 -299 -190 -306 0 -3 -12 -23 -27 -47 -27 -42 -183 -351 -183 -361 0
-3 -13 -34 -28 -68 -16 -35 -39 -90 -51 -123 -13 -33 -27 -69 -32 -80 -29 -68
-142 -435 -167 -545 -51 -221 -66 -303 -104 -595 -18 -136 -18 -808 0 -965 26
-231 68 -471 113 -655 57 -227 177 -579 261 -765 69 -152 122 -258 177 -355
35 -60 75 -130 88 -155 59 -105 318 -481 352 -510 4 -3 26 -30 51 -60 180
-220 464 -505 640 -640 25 -19 47 -37 50 -40 42 -46 349 -258 539 -372 130
-78 474 -250 596 -299 160 -63 319 -119 425 -149 25 -7 56 -16 70 -21 99 -33
414 -101 595 -128 326 -48 723 -64 980 -41 324 30 432 44 665 90 127 25 414
104 555 154 265 94 352 130 575 242 636 320 1160 751 1608 1323 74 94 292 411
292 425 0 2 23 41 50 86 148 242 358 718 420 955 5 17 22 76 38 132 30 100 80
320 101 438 102 588 93 1151 -30 1765 -57 289 -182 676 -301 940 -97 213 -152
316 -308 580 -84 142 -289 420 -426 576 -169 193 -379 399 -544 534 -30 25
-57 47 -60 50 -20 22 -172 134 -325 241 -49 34 -211 134 -310 191 -90 52 -473
238 -490 238 -3 0 -24 8 -48 19 -23 10 -67 28 -97 39 -30 11 -75 28 -100 37
-25 10 -72 25 -105 35 -33 10 -105 32 -160 48 -254 77 -478 121 -825 162 -86
10 -603 20 -740 14z m3480 -2949 l0 -225 -445 0 -445 0 -2 -1342 -3 -1343
-447 -3 -448 -2 0 1345 0 1345 -450 0 -450 0 0 218 c0 120 3 222 7 225 3 4
609 7 1345 7 l1338 0 0 -225z m-3580 -900 l0 -225 225 0 225 0 0 -895 0 -895
-450 0 -450 0 0 895 0 895 -225 0 -225 0 0 -895 0 -895 -447 0 -448 0 3 895 3
895 -226 0 -225 0 0 -895 0 -895 -450 0 -450 0 0 1120 0 1120 1570 0 1570 0 0
-225z m575 65 c225 -54 414 -186 544 -380 232 -347 192 -811 -96 -1106 -39
-41 -76 -74 -82 -74 -8 0 -11 63 -11 193 0 341 -22 467 -115 662 -50 106 -118
198 -174 239 -30 22 -53 54 -88 123 -26 52 -55 101 -64 109 -10 9 -44 18 -77
21 l-60 6 -47 69 c-26 37 -65 81 -86 96 -21 15 -39 30 -39 34 -1 31 279 37
395 8z m-3785 -1646 l0 -456 41 -92 c23 -50 68 -156 101 -235 119 -290 196
-384 350 -427 72 -20 486 -30 630 -15 139 14 196 39 292 130 41 39 82 71 91
71 30 0 80 -28 134 -74 128 -112 181 -126 496 -133 391 -9 490 11 610 126 105
101 116 101 228 12 161 -128 196 -136 582 -136 285 0 304 1 373 23 59 18 83
32 118 68 63 65 83 137 91 329 l6 151 95 49 c270 140 469 316 622 548 l59 89
3 -244 4 -243 38 -80 c21 -44 65 -144 97 -223 33 -79 75 -174 94 -211 42 -84
123 -175 184 -205 91 -46 137 -51 448 -51 165 0 293 -4 293 -9 0 -14 95 1 142
22 24 10 60 36 80 57 85 88 98 157 98 535 0 194 -4 290 -10 280 -6 -10 -10
124 -10 386 0 357 2 403 16 408 9 3 254 6 545 6 518 0 529 0 529 -19 0 -48
-33 -270 -61 -411 -248 -1244 -1095 -2301 -2259 -2819 -963 -428 -2064 -451
-3040 -64 -265 105 -480 217 -725 378 -951 626 -1589 1654 -1730 2790 -8 66
-15 126 -15 133 0 9 43 12 180 12 l180 0 0 -456z"/>
</g>
</svg>
